<svg width="561" height="435" viewBox="0 0 561 435" fill="none" xmlns="http://www.w3.org/2000/svg">
    <path d="M61.3543 317.085C43.6193 290.024 39.5803 254.136 50.8423 223.681C62.1043 193.226 88.3732 168.995 119.213 160.615C124.491 159.181 129.964 158.154 134.765 155.495C139.565 152.836 143.697 148.092 143.896 142.525C144.168 134.913 137.133 128.943 129.976 126.763C122.819 124.583 115.125 124.892 107.922 122.878C87.5462 117.18 75.8723 90.5061 85.3193 71.2331C90.8643 59.9201 101.906 52.2211 113.64 48.1291C125.375 44.0371 137.909 43.1171 150.28 42.2301C193.801 39.1091 237.321 35.9871 280.842 32.8661C350.427 27.8751 431.392 15.4031 481.495 64.9011C531.598 114.399 546.611 197.135 517.195 261.641C488.021 325.617 408.714 405.498 254.423 412.12C179.226 415.347 103.174 380.896 61.3543 317.085Z" fill="#4D57FF"/>
    <mask id="mask0_47_727" style="mask-type:luminance" maskUnits="userSpaceOnUse" x="44" y="27" width="489" height="386">
        <path d="M61.3543 317.085C43.6193 290.024 39.5803 254.136 50.8423 223.681C62.1043 193.226 88.3732 168.995 119.213 160.615C124.491 159.181 129.964 158.154 134.765 155.495C139.565 152.836 143.697 148.092 143.896 142.525C144.168 134.913 137.133 128.943 129.976 126.763C122.819 124.583 115.125 124.892 107.922 122.878C87.5462 117.18 75.8723 90.5061 85.3193 71.2331C90.8643 59.9201 101.906 52.2211 113.64 48.1291C125.375 44.0371 137.909 43.1171 150.28 42.2301C193.801 39.1091 237.321 35.9871 280.842 32.8661C350.427 27.8751 431.392 15.4031 481.495 64.9011C531.598 114.399 546.611 197.135 517.195 261.641C488.021 325.617 408.714 405.498 254.423 412.12C179.226 415.347 103.174 380.896 61.3543 317.085Z" fill="white"/>
    </mask>
    <g mask="url(#mask0_47_727)">
        <path d="M166.713 162.714C160.51 164.306 154.175 166.222 149.241 170.306C144.308 174.389 141.084 181.171 142.949 187.297C144.586 192.673 149.755 196.376 155.186 197.82C160.617 199.265 166.347 198.836 171.95 198.396C190.124 196.969 208.298 195.542 226.473 194.116C232.83 193.617 239.313 193.088 245.191 190.619C251.07 188.15 256.347 183.363 257.709 177.134C261.026 161.961 242.384 154.291 230.671 154.371C209.138 154.52 187.565 157.361 166.713 162.714Z" fill="#3E49E3"/>
        <path d="M279.554 445.148C287.105 435.307 289.292 421.59 285.174 409.889C281.056 398.188 270.762 388.863 258.711 385.92C253.534 384.656 247.012 383.634 245.405 378.554C243.655 373.023 249.36 368.335 253.303 364.08C261.547 355.183 263.437 340.984 257.807 330.24C252.177 319.496 239.427 312.969 227.419 314.684C222.231 315.425 217.342 317.524 212.249 318.758C207.156 319.992 201.472 320.267 196.971 317.582C192.47 314.897 190.009 308.434 193.028 304.151C195.725 300.325 201.097 299.843 205.304 297.791C213.383 293.85 216.914 283.397 214.6 274.711C212.286 266.025 205.212 259.21 197.159 255.216C189.106 251.222 180.086 249.677 171.182 248.444C122.843 241.748 73.4273 242.883 25.4473 251.793C38.5003 285.223 54.0153 320.829 76.8013 348.556C100.978 377.976 134.499 398.58 169.855 412.723C205.21 426.866 242.335 437.096 279.554 445.148Z" fill="#3E49E3"/>
        <path d="M537.843 305.205C527.647 317.377 513.726 326.384 498.444 330.696C492.41 332.398 485.271 333.164 480.457 329.148C476.929 326.204 475.6 321.446 473.08 317.604C468.527 310.66 460.239 307.031 452.069 305.546C443.899 304.061 435.508 304.348 427.274 303.272C401.877 299.954 378.739 282.736 368.266 259.363C357.792 235.99 360.342 207.262 374.768 186.099C389.194 164.936 415.002 152.062 440.586 153.268C448.777 153.654 457.18 155.353 465.039 153.011C472.897 150.669 479.799 142.185 476.744 134.576C473.694 126.978 463.737 125.583 455.556 125.26C447.375 124.937 437.378 123.239 434.684 115.508C432.699 109.812 436.156 103.366 441.144 99.9751C446.132 96.5841 452.3 95.5371 458.254 94.5721C477.44 91.4631 496.625 88.3531 515.811 85.2441C537.1 118.524 543.958 159.711 541.592 199.147L537.843 305.205Z" fill="#3E49E3"/>
    </g>
    <mask id="mask1_47_727" style="mask-type:luminance" maskUnits="userSpaceOnUse" x="44" y="27" width="489" height="386">
        <path d="M61.3543 317.085C43.6193 290.024 39.5803 254.136 50.8423 223.681C62.1043 193.226 88.3732 168.995 119.213 160.615C124.491 159.181 129.964 158.154 134.765 155.495C139.565 152.836 143.697 148.092 143.896 142.525C144.168 134.913 137.133 128.943 129.976 126.763C122.819 124.583 115.125 124.892 107.922 122.878C87.5462 117.18 75.8723 90.5061 85.3193 71.2331C90.8643 59.9201 101.906 52.2211 113.64 48.1291C125.375 44.0371 137.909 43.1171 150.28 42.2301C193.801 39.1091 237.321 35.9871 280.842 32.8661C350.427 27.8751 431.392 15.4031 481.495 64.9011C531.598 114.399 546.611 197.135 517.195 261.641C488.021 325.617 408.714 405.498 254.423 412.12C179.226 415.347 103.174 380.896 61.3543 317.085Z" fill="white"/>
    </mask>
    <g mask="url(#mask1_47_727)">
        <path d="M490.704 128.033C493.668 128.033 496.07 125.631 496.07 122.667C496.07 119.704 493.668 117.301 490.704 117.301C487.741 117.301 485.338 119.704 485.338 122.667C485.338 125.631 487.741 128.033 490.704 128.033Z" stroke="white" stroke-width="1.5" stroke-miterlimit="10" stroke-linecap="round" stroke-linejoin="round"/>
        <path d="M170.505 371.273C173.469 371.273 175.871 368.871 175.871 365.907C175.871 362.944 173.469 360.541 170.505 360.541C167.542 360.541 165.139 362.944 165.139 365.907C165.139 368.871 167.542 371.273 170.505 371.273Z" stroke="white" stroke-width="1.5" stroke-miterlimit="10" stroke-linecap="round" stroke-linejoin="round"/>
        <path d="M124.385 185.77C127.349 185.77 129.751 183.368 129.751 180.404C129.751 177.441 127.349 175.038 124.385 175.038C121.422 175.038 119.019 177.441 119.019 180.404C119.019 183.368 121.422 185.77 124.385 185.77Z" stroke="white" stroke-width="1.5" stroke-miterlimit="10" stroke-linecap="round" stroke-linejoin="round"/>
        <path d="M113.531 87.3321C116.495 87.3321 118.897 84.9297 118.897 81.9661C118.897 79.0026 116.495 76.6001 113.531 76.6001C110.568 76.6001 108.165 79.0026 108.165 81.9661C108.165 84.9297 110.568 87.3321 113.531 87.3321Z" stroke="white" stroke-width="1.5" stroke-miterlimit="10" stroke-linecap="round" stroke-linejoin="round"/>
        <path d="M474.327 173.631C474.327 171.868 472.898 170.438 471.134 170.438C469.37 170.438 467.941 171.868 467.941 173.631C467.941 175.394 469.371 176.824 471.134 176.824C472.897 176.824 474.327 175.394 474.327 173.631Z" stroke="white" stroke-width="1.5" stroke-miterlimit="10" stroke-linecap="round" stroke-linejoin="round"/>
        <path d="M116.724 204.408C116.724 202.645 115.294 201.215 113.531 201.215C111.768 201.215 110.338 202.645 110.338 204.408C110.338 206.171 111.767 207.601 113.531 207.601C115.295 207.601 116.724 206.171 116.724 204.408Z" stroke="white" stroke-width="1.5" stroke-miterlimit="10" stroke-linecap="round" stroke-linejoin="round"/>
        <path d="M461.868 81.9661C461.868 80.2031 460.438 78.7731 458.675 78.7731C456.912 78.7731 455.482 80.2021 455.482 81.9661C455.482 83.7291 456.912 85.1591 458.675 85.1591C460.439 85.1581 461.868 83.7291 461.868 81.9661Z" stroke="white" stroke-width="1.5" stroke-miterlimit="10" stroke-linecap="round" stroke-linejoin="round"/>
        <path d="M418.033 137.066C418.033 135.303 416.604 133.873 414.84 133.873C413.076 133.873 411.647 135.302 411.647 137.066C411.647 138.829 413.077 140.259 414.84 140.259C416.603 140.259 418.033 138.83 418.033 137.066Z" stroke="white" stroke-width="1.5" stroke-miterlimit="10" stroke-linecap="round" stroke-linejoin="round"/>
        <path d="M285.704 45.3311C285.704 43.5681 284.274 42.1381 282.511 42.1381C280.748 42.1381 279.318 43.5671 279.318 45.3311C279.318 47.0941 280.748 48.5241 282.511 48.5241C284.274 48.5241 285.704 47.0941 285.704 45.3311Z" stroke="white" stroke-width="1.5" stroke-miterlimit="10" stroke-linecap="round" stroke-linejoin="round"/>
        <path d="M127.577 100.857C127.577 99.0941 126.147 97.6642 124.384 97.6642C122.621 97.6642 121.191 99.0941 121.191 100.857C121.191 102.62 122.621 104.05 124.384 104.05C126.148 104.05 127.577 102.621 127.577 100.857Z" stroke="white" stroke-width="1.5" stroke-miterlimit="10" stroke-linecap="round" stroke-linejoin="round"/>
        <path d="M64.9133 292.098C64.9133 290.335 63.4843 288.905 61.7203 288.905C59.9573 288.905 58.5273 290.335 58.5273 292.098C58.5273 293.861 59.9563 295.291 61.7203 295.291C63.4843 295.291 64.9133 293.861 64.9133 292.098Z" stroke="white" stroke-width="1.5" stroke-miterlimit="10" stroke-linecap="round" stroke-linejoin="round"/>
        <path d="M210.957 76.6001C210.957 74.8371 209.528 73.4072 207.764 73.4072C206.001 73.4072 204.571 74.8371 204.571 76.6001C204.571 78.3631 206.001 79.7931 207.764 79.7931C209.528 79.7931 210.957 78.3631 210.957 76.6001Z" stroke="white" stroke-width="1.5" stroke-miterlimit="10" stroke-linecap="round" stroke-linejoin="round"/>
    </g>
    <path d="M100.225 236.426C94.6552 216.57 95.1232 195.503 90.7692 175.347C84.9752 148.527 70.2912 123.772 49.8262 105.528C47.6492 103.587 44.4752 106.217 45.9342 108.742C57.7712 129.214 59.4882 155.938 59.9322 180.411C60.5032 211.882 57.2902 244.384 68.0162 273.976C80.4302 308.226 112.104 334.745 148.002 340.945L203.205 311.908C157.365 313.387 112.613 280.586 100.225 236.426Z" fill="#060305"/>
    <path d="M230.11 210.413C179.562 168.607 191.582 112.659 192.193 99.4442C193.767 65.4122 175.976 31.3761 147.861 12.3661C145.656 10.8751 142.964 13.5621 144.465 15.7601C153.837 29.4841 157.971 46.6191 158.401 63.5471C158.948 85.0921 154.897 106.488 154.088 128.025C151.795 189.018 177.001 250.525 221.437 292.369L213.522 410.186C246.32 414.067 285.931 412.328 324.16 403.394C291.348 261.325 246.616 224.064 230.11 210.413Z" fill="#060305"/>
    <path d="M372.772 17.5181C372.157 14.4951 367.71 14.7951 367.574 17.8771C366.585 40.1311 354.836 62.2661 342.824 81.8591C327.278 107.217 310.078 134.782 313.741 164.299L345.413 180.404C340.019 160.26 344.208 138.762 350.839 118.991C357.47 99.2202 366.53 80.2101 371.228 59.8921C374.368 46.3121 375.575 31.2921 372.772 17.5181Z" fill="#060305"/>
    <path d="M450.861 1.78715C449.726 -1.19085 445.212 -0.207854 445.415 2.97215C446.27 16.3551 442.197 30.2491 435.485 42.0602C426.059 58.6471 411.978 71.9961 398.331 85.3281C384.684 98.6591 371.019 112.578 362.77 129.781C351.863 152.529 351.477 178.647 347.914 203.622C344.351 228.597 335.932 255.227 314.916 269.182L349.652 274.135C374.418 267.463 388.288 240.688 392.715 215.423C397.142 190.159 395.244 163.77 402.919 139.296C408.539 121.373 419.004 105.44 428.97 89.5181C438.936 73.5961 448.676 57.0551 452.562 38.6781C455.211 26.1451 455.194 13.1491 450.861 1.78715Z" fill="#060305"/>
    <path d="M531.951 121.182C534.078 118.726 530.809 115.308 528.215 117.265C511.225 130.077 498.499 148.457 494.026 169.243C490.356 186.3 491.555 204.48 485.015 220.655C479.018 235.489 467.158 247.035 458.114 260.235C439.911 286.801 433.956 321.086 440.79 352.472C481.138 322.397 479.652 315.748 496.157 283.824C507.458 261.966 515.764 237.715 515.908 213.109C515.988 199.336 512.384 185.741 512.44 171.968C512.516 153.421 519.828 135.179 531.951 121.182Z" fill="#060305"/>
    <path d="M151.605 392.622C137.913 353.089 104.48 324.886 64.5201 312.058C53.6941 308.582 42.4211 306.476 31.8781 302.22C25.7121 299.73 19.7021 296.356 14.7641 291.947C12.3041 289.75 8.55911 292.58 10.0361 295.529C15.9361 307.305 27.6811 317.169 38.6041 324.549C53.7801 334.8 117.356 377.173 151.605 392.622Z" fill="#060305"/>
    <path d="M9.70116 182.396C1.89116 174.586 -5.16684 188.797 9.70116 194.988C24.5692 188.797 17.5112 174.586 9.70116 182.396Z" stroke="#060305" stroke-width="1.5" stroke-miterlimit="10" stroke-linecap="round" stroke-linejoin="round"/>
    <path d="M511.365 336.74C503.555 328.93 496.497 343.141 511.365 349.332C526.233 343.141 519.176 328.93 511.365 336.74Z" fill="#97B8FF"/>
    <path d="M497.232 59.1831C498.311 59.1831 499.185 58.3088 499.185 57.2301C499.185 56.1515 498.311 55.2771 497.232 55.2771C496.153 55.2771 495.279 56.1515 495.279 57.2301C495.279 58.3088 496.153 59.1831 497.232 59.1831Z" fill="#FFB800"/>
    <path d="M560.779 202.455C560.779 201.377 559.905 200.502 558.826 200.502C557.748 200.502 556.873 201.376 556.873 202.455C556.873 203.534 557.747 204.408 558.826 204.408C559.905 204.408 560.779 203.534 560.779 202.455Z" fill="#FFB800"/>
    <path d="M83.7211 380.544C84.7997 380.544 85.6741 379.67 85.6741 378.591C85.6741 377.513 84.7997 376.638 83.7211 376.638C82.6424 376.638 81.7681 377.513 81.7681 378.591C81.7681 379.67 82.6424 380.544 83.7211 380.544Z" fill="#97B8FF"/>
    <path d="M348.851 432.445C348.851 431.367 347.977 430.492 346.898 430.492C345.82 430.492 344.945 431.366 344.945 432.445C344.945 433.524 345.819 434.398 346.898 434.398C347.976 434.398 348.851 433.524 348.851 432.445Z" fill="#FFB800"/>
    <path d="M138.658 85.0511C138.658 83.9731 137.784 83.0981 136.705 83.0981C135.627 83.0981 134.752 83.9721 134.752 85.0511C134.752 86.1301 135.626 87.0042 136.705 87.0042C137.784 87.0042 138.658 86.1301 138.658 85.0511Z" fill="#FFB800"/>
    <path d="M331.534 61.1351C332.613 61.1351 333.487 60.2608 333.487 59.1821C333.487 58.1035 332.613 57.2291 331.534 57.2291C330.455 57.2291 329.581 58.1035 329.581 59.1821C329.581 60.2608 330.455 61.1351 331.534 61.1351Z" fill="#FFB800"/>
    <path d="M281.773 13.8881C282.852 13.8881 283.726 13.0138 283.726 11.9351C283.726 10.8565 282.852 9.98215 281.773 9.98215C280.694 9.98215 279.82 10.8565 279.82 11.9351C279.82 13.0138 280.694 13.8881 281.773 13.8881Z" stroke="#060305" stroke-width="1.5" stroke-miterlimit="10" stroke-linecap="round" stroke-linejoin="round"/>
    <path d="M98.3782 143.301C98.3782 142.223 97.5042 141.348 96.4252 141.348C95.3462 141.348 94.4722 142.222 94.4722 143.301C94.4722 144.379 95.3462 145.254 96.4252 145.254C97.5042 145.254 98.3782 144.38 98.3782 143.301Z" fill="#97B8FF"/>
    <path d="M84.5711 25.8811L79.6641 34.3801H89.4781L84.5711 25.8811Z" fill="#FFB800"/>
    <path d="M48.0601 387.119L43.1531 395.619H52.9671L48.0601 387.119Z" fill="#FFB800"/>
    <path d="M430.356 173.481L435.263 164.982H425.448L430.356 173.481Z" stroke="#060305" stroke-width="1.5" stroke-miterlimit="10" stroke-linecap="round" stroke-linejoin="round"/>
    <path d="M235.403 62.8961L240.31 54.3961H230.495L235.403 62.8961Z" fill="#FFB800"/>
    <path d="M314.434 370.248C312.147 375.468 308.438 381.179 303.49 383.001C302.082 383.544 300.557 383.75 298.942 383.544C292.507 382.704 289.07 375.701 286.757 369.641C275.929 341.266 265.101 312.904 254.273 284.53L279.03 249.592L302.236 253.106L315.661 255.135C330.689 291.584 330.236 334.121 314.434 370.248Z" fill="#FF5B3B"/>
    <path d="M303.49 383.001C302.082 383.544 300.557 383.75 298.942 383.544C292.507 382.704 289.07 375.701 286.757 369.641C275.929 341.266 265.101 312.904 254.273 284.53L279.03 249.592L302.236 253.106C307.896 276.558 312.573 300.294 312.999 324.366C313.349 344.238 310.584 364.537 303.49 383.001Z" fill="white"/>
    <path d="M280.002 329.743C282.144 333.393 286.993 335.075 291.038 333.831C294.482 332.772 297.269 329.712 297.851 326.157C298.433 322.601 296.695 318.738 293.572 316.942C285.895 312.529 275.214 321.587 280.002 329.743Z" stroke="#060305" stroke-width="1.5" stroke-miterlimit="10" stroke-linecap="round" stroke-linejoin="round"/>
    <path d="M285.821 352.357C285.972 355.987 289.296 359.194 292.93 359.214C296.564 359.234 299.923 356.066 300.115 352.437C300.64 342.514 285.406 342.417 285.821 352.357Z" stroke="#060305" stroke-width="1.5" stroke-miterlimit="10" stroke-linecap="round" stroke-linejoin="round"/>
    <path d="M298.48 377.415C301.277 380.018 306.484 379.116 308.243 375.725" stroke="white" stroke-width="1.5" stroke-miterlimit="10" stroke-linecap="round" stroke-linejoin="round"/>
    <path d="M396.315 389.888C395.436 393.338 393.821 397.111 391.521 399.798C389.441 402.214 386.805 403.739 383.626 403.325C376.817 402.433 374.801 393.802 373.302 387.109C369.193 368.696 354.489 353.01 339.526 341.536C318.439 325.372 304.471 300.227 301.9 273.791L349.824 288.999L378.922 298.238C397.697 324.275 404.248 358.774 396.315 389.888Z" fill="#FF5B3B"/>
    <path d="M391.521 399.798C389.441 402.214 386.805 403.739 383.626 403.325C376.817 402.433 374.801 393.802 373.302 387.109C369.193 368.696 354.489 353.01 339.526 341.536C318.439 325.372 304.471 300.227 301.9 273.791L349.824 288.999C353.002 302.592 359.515 315.474 366.35 327.762C375.317 343.888 385.15 359.897 389.543 377.805C391.289 384.913 392.038 392.446 391.521 399.798Z" fill="white"/>
    <path d="M328.572 329.839C330.789 326.775 334.821 325.137 338.547 325.787C342.273 326.437 345.512 329.342 346.562 332.976C347.611 336.61 346.42 340.795 343.614 343.331" stroke="#060305" stroke-width="1.5" stroke-miterlimit="10" stroke-linecap="round" stroke-linejoin="round"/>
    <path d="M356.251 356.07C357.707 352.981 361.578 351.28 364.849 352.262C368.12 353.244 370.408 356.765 370.015 360.157C369.726 362.651 368.079 364.945 365.808 366.015" stroke="#060305" stroke-width="1.5" stroke-miterlimit="10" stroke-linecap="round" stroke-linejoin="round"/>
    <path d="M371.22 377.996C373.062 376.719 375.687 376.697 377.551 377.942C379.415 379.187 380.399 381.621 379.925 383.812C379.451 386.003 377.548 387.812 375.336 388.175" stroke="#060305" stroke-width="1.5" stroke-miterlimit="10" stroke-linecap="round" stroke-linejoin="round"/>
    <path d="M383.099 397.686C387.193 399.153 392.247 396.053 392.796 391.739" stroke="white" stroke-width="1.5" stroke-miterlimit="10" stroke-linecap="round" stroke-linejoin="round"/>
    <path d="M309.213 301.658C310.86 305.396 312.507 309.135 314.154 312.873" stroke="#060305" stroke-width="1.5" stroke-miterlimit="10" stroke-linecap="round" stroke-linejoin="round"/>
    <path d="M272.04 324.688C263.641 334.327 253.214 341.938 243.807 350.595C234.401 359.252 225.743 369.486 222.526 381.851C221.428 386.05 220.989 390.418 219.516 394.488C218.03 398.571 215.252 402.486 211.143 403.869C207.163 405.213 202.693 403.856 199.385 401.22C199.01 400.923 198.648 400.613 198.312 400.29C194.94 397.06 192.963 392.654 191.412 388.248C182.135 361.85 186.347 331.098 202.369 308.163L238.703 281.791L289.47 244.953C297.469 272.177 290.659 303.278 272.04 324.688Z" fill="#FF5B3B"/>
    <path d="M272.04 324.688C263.641 334.327 253.214 341.938 243.807 350.595C234.401 359.252 225.743 369.486 222.526 381.851C221.428 386.05 220.989 390.418 219.516 394.488C218.03 398.571 215.252 402.486 211.143 403.869C207.163 405.213 202.693 403.856 199.385 401.22C195.405 392.77 193.454 383.376 194.049 374.047C195.354 353.645 207.487 335.775 218.909 318.822C226.713 307.245 234.569 294.931 238.704 281.79L289.471 244.952C297.469 272.177 290.659 303.278 272.04 324.688Z" fill="white"/>
    <path d="M270.448 327.405C282.016 315.089 289.676 299.157 292.073 282.432" stroke="#060305" stroke-width="1.5" stroke-miterlimit="10" stroke-linecap="round" stroke-linejoin="round"/>
    <path d="M214.332 366.003C216.764 368.852 221.526 369.299 224.444 366.951C227.363 364.604 227.948 359.857 225.687 356.871C219.769 349.056 207.968 358.547 214.332 366.003Z" stroke="#060305" stroke-width="1.5" stroke-miterlimit="10" stroke-linecap="round" stroke-linejoin="round"/>
    <path d="M261.865 332.008C262.249 327.232 258.434 322.499 253.686 321.86C248.938 321.222 244.008 324.779 243.117 329.487C242.226 334.195 245.516 339.307 250.169 340.448" stroke="#060305" stroke-width="1.5" stroke-miterlimit="10" stroke-linecap="round" stroke-linejoin="round"/>
    <path d="M288.524 293.612C285.112 291.49 280.442 291.609 277.142 293.902C273.842 296.195 272.102 300.53 272.9 304.468C273.698 308.406 276.99 311.721 280.922 312.548" stroke="#060305" stroke-width="1.5" stroke-miterlimit="10" stroke-linecap="round" stroke-linejoin="round"/>
    <path d="M204.802 397.194C206.635 398.323 209.037 398.468 210.992 397.567C212.948 396.667 214.399 394.748 214.734 392.622" stroke="white" stroke-width="1.5" stroke-miterlimit="10" stroke-linecap="round" stroke-linejoin="round"/>
    <path d="M241.947 253.764C237.877 264.476 229.414 273.365 219.219 279.373C212.358 283.417 204.696 286.17 197.046 287.268C181.088 289.581 165.079 280.833 154.743 268.455C144.393 256.089 140.22 241.101 135.348 225.725C129.882 224.601 125.554 219.355 125.477 213.773C125.386 208.191 129.56 202.842 135 201.55C140.156 200.323 145.608 202.558 149.704 205.917C153.813 209.276 156.888 213.696 160.273 217.779C168.31 227.431 178.75 235.571 190.935 238.582C203.132 241.605 217.191 238.763 225.68 229.498L241.947 253.764Z" fill="#FF5B3B"/>
    <path d="M219.219 279.374C212.358 283.418 204.696 286.171 197.046 287.269C181.088 289.582 165.079 280.834 154.743 268.456C144.393 256.09 140.22 241.102 135.348 225.726L141.059 228.608C146.059 243.441 157.856 254.876 171.139 263.133C184.435 271.39 200.638 274.865 216.143 272.772C217.177 274.981 218.198 277.177 219.219 279.374Z" fill="white"/>
    <path d="M143.686 251.941C146.961 251.768 150.267 253.532 151.948 256.348C153.629 259.164 153.613 262.911 151.907 265.712" stroke="#060305" stroke-width="1.5" stroke-miterlimit="10" stroke-linecap="round" stroke-linejoin="round"/>
    <path d="M161.903 274.701C164.353 273.299 167.602 273.435 169.927 275.037C172.251 276.639 173.535 279.627 173.097 282.416" stroke="#060305" stroke-width="1.5" stroke-miterlimit="10" stroke-linecap="round" stroke-linejoin="round"/>
    <path d="M130.559 210.239C131.318 205.786 137.011 203.001 140.993 205.134" stroke="white" stroke-width="1.5" stroke-miterlimit="10" stroke-linecap="round" stroke-linejoin="round"/>
    <path d="M455.713 216.164C453.633 240.766 442.534 264.708 425.891 282.953C419.107 290.383 410.321 297.296 400.268 297.05C388.407 297.489 376.842 292.928 368.043 285.111C364.683 282.152 361.724 278.702 359.308 274.89L365.084 232.625C381.636 238.478 401.341 234.201 413.964 221.991C419.119 216.99 423.086 210.905 427.738 205.439C432.403 199.96 438.075 194.921 445.039 193.151C452.004 191.381 460.415 193.745 463.8 200.077C467.187 206.422 462.897 216.022 455.713 216.164Z" fill="#FF5B3B"/>
    <path d="M455.713 216.164C453.633 240.766 442.534 264.708 425.891 282.953C419.107 290.383 410.321 297.296 400.268 297.05C388.407 297.489 376.842 292.928 368.043 285.111C439.819 273.676 449.846 217.366 449.846 217.366L455.713 216.164Z" fill="white"/>
    <path d="M434.218 271.288C431.252 269.176 426.729 269.681 424.301 272.394C421.873 275.107 421.874 279.659 424.302 282.372" stroke="#060305" stroke-width="1.5" stroke-miterlimit="10" stroke-linecap="round" stroke-linejoin="round"/>
    <path d="M447.001 247.468C444.355 246.667 441.229 247.999 439.976 250.463C438.722 252.927 439.486 256.239 441.691 257.905" stroke="#060305" stroke-width="1.5" stroke-miterlimit="10" stroke-linecap="round" stroke-linejoin="round"/>
    <path d="M453.801 226.72C451.747 226.849 449.84 228.315 449.186 230.266C448.532 232.218 449.17 234.536 450.732 235.877" stroke="#060305" stroke-width="1.5" stroke-miterlimit="10" stroke-linecap="round" stroke-linejoin="round"/>
    <path d="M435.078 202.455C438.5 197.788 444.36 195.02 450.138 195.342" stroke="white" stroke-width="1.5" stroke-miterlimit="10" stroke-linecap="round" stroke-linejoin="round"/>
    <path d="M456.509 350.751C456.33 355.35 455.856 359.959 452.426 363.064C449.006 366.168 443.597 366.81 439.535 364.6C433.116 361.117 431.716 352.74 428.643 346.1C422.076 331.883 406.165 324.285 390.737 321.643C375.32 318.98 359.44 320.085 344.002 317.539C330.248 315.266 316.862 309.973 306.012 301.238C295.173 292.493 287.006 280.18 284.354 266.489C283.186 272.151 281.387 277.581 279.029 282.706C267.664 307.436 243.407 325.41 215.951 329.873C205.143 331.62 194.104 331.241 183.275 332.756C172.436 334.25 161.323 338.007 154.146 346.268C153.451 347.068 152.778 347.92 152.104 348.783C148.515 353.403 144.969 358.486 139.37 358.822C132.098 359.275 127.31 351.098 126.447 343.879C124.458 327.157 133.792 310.846 146.105 299.364C156.113 290.03 168.005 283.116 179.643 275.854C182.327 274.181 185.01 272.486 187.641 270.74C201.679 261.437 215.434 246.567 221.632 230.919L221.916 217.491L222.568 187.551L222.642 183.952C219.79 172.397 216.938 160.853 214.097 149.298C209.288 129.766 212.866 106.857 225.221 90.9762C226.284 89.6082 227.41 88.2921 228.599 87.0401C243.637 71.2021 267.41 64.2351 288.625 69.4551C309.84 74.6751 327.678 91.8812 333.655 112.886C338.79 130.902 343.852 147.551 349.009 165.567C360.196 163.473 370.667 168.619 375.497 178.9C380.327 189.192 377.349 202.599 368.593 209.86C370.456 218.563 371.866 226.992 373.739 235.695C377.138 251.565 389.346 264.046 401.595 274.706C413.844 285.366 427.209 294.869 438.038 306.971C448.869 319.085 457.152 334.523 456.509 350.751Z" fill="#FFB800"/>
    <path d="M265.576 211.874C265.576 210.09 264.13 208.644 262.346 208.644C260.562 208.644 259.116 210.09 259.116 211.874C259.116 213.658 260.562 215.104 262.346 215.104C264.129 215.104 265.576 213.658 265.576 211.874Z" fill="#060305"/>
    <path d="M357.382 200.563C357.382 198.779 355.936 197.333 354.152 197.333C352.368 197.333 350.922 198.779 350.922 200.563C350.922 202.347 352.368 203.793 354.152 203.793C355.936 203.794 357.382 202.347 357.382 200.563Z" fill="#060305"/>
    <path d="M254.967 183.925C256.119 179.592 259.502 175.917 263.725 174.411C267.948 172.905 272.893 173.612 276.526 176.239" stroke="#060305" stroke-width="1.5" stroke-miterlimit="10" stroke-linecap="round" stroke-linejoin="round"/>
    <path d="M345.53 180.11C349.583 179.295 353.636 178.48 357.689 177.665" stroke="#060305" stroke-width="1.5" stroke-miterlimit="10" stroke-linecap="round" stroke-linejoin="round"/>
    <path d="M301.244 210.053C302.064 213.231 305.193 215.655 308.475 215.656C311.756 215.656 314.886 213.232 315.707 210.055" stroke="#060305" stroke-width="1.5" stroke-miterlimit="10" stroke-linecap="round" stroke-linejoin="round"/>
    <path d="M279.03 282.708C267.66 307.439 243.407 325.412 215.949 329.87C205.147 331.614 194.099 331.24 183.272 332.751C172.431 334.25 161.319 338.01 154.148 346.266C153.45 347.067 152.778 347.92 152.106 348.786C152.067 345.879 151.706 342.997 151.021 340.181C162.74 327.984 176.786 321.316 193.169 317.091C209.553 312.866 226.454 310.63 242.527 305.333C256.276 300.81 269.74 293.626 279.03 282.708Z" fill="white"/>
    <path d="M169.968 334.765C170.823 332.184 173.197 330.171 175.883 329.75C178.569 329.329 181.446 330.518 183.05 332.713" stroke="#060305" stroke-width="1.5" stroke-miterlimit="10" stroke-linecap="round" stroke-linejoin="round"/>
    <path d="M203.221 331.054C202.839 326.101 206.701 321.185 211.603 320.383C216.505 319.581 221.732 323.012 222.947 327.829" stroke="#060305" stroke-width="1.5" stroke-miterlimit="10" stroke-linecap="round" stroke-linejoin="round"/>
    <path d="M241.668 320.023C240.756 316.657 242.298 312.778 245.272 310.955C248.246 309.133 252.402 309.52 254.988 311.861" stroke="#060305" stroke-width="1.5" stroke-miterlimit="10" stroke-linecap="round" stroke-linejoin="round"/>
    <path d="M210.56 330.599C239.935 327.768 267.238 308.785 280.122 282.235" stroke="#060305" stroke-width="1.5" stroke-miterlimit="10" stroke-linecap="round" stroke-linejoin="round"/>
    <path d="M271.263 139.237C271.263 165.914 249.626 187.551 222.949 187.551H222.57L222.644 183.952C219.792 172.397 216.94 160.853 214.099 149.298C209.29 129.766 212.868 106.857 225.223 90.9762C250.847 92.1662 271.263 113.318 271.263 139.237Z" fill="#FF5B3B"/>
    <path d="M241.176 249.587C241.176 269.677 224.886 285.967 204.807 285.967C195.041 285.967 186.18 282.115 179.645 275.854C182.329 274.181 185.012 272.486 187.643 270.74C201.681 261.437 215.436 246.567 221.634 230.919L221.918 217.491C233.378 223.615 241.176 235.686 241.176 249.587Z" fill="#FF5B3B"/>
    <path d="M273.934 94.4801C273.934 90.9581 271.079 88.1031 267.557 88.1031C264.035 88.1031 261.18 90.9581 261.18 94.4801C261.18 98.0021 264.035 100.857 267.557 100.857C271.079 100.857 273.934 98.0021 273.934 94.4801Z" fill="#FF5B3B"/>
    <path d="M394.324 276.176C394.324 272.654 391.469 269.799 387.947 269.799C384.425 269.799 381.57 272.654 381.57 276.176C381.57 279.698 384.425 282.553 387.947 282.553C391.469 282.553 394.324 279.698 394.324 276.176Z" fill="#FF5B3B"/>
    <path d="M287.028 122.667C292.065 122.667 296.149 118.584 296.149 113.546C296.149 108.509 292.065 104.425 287.028 104.425C281.991 104.425 277.907 108.509 277.907 113.546C277.907 118.584 281.991 122.667 287.028 122.667Z" fill="#FF5B3B"/>
    <path d="M376.484 264.445C378.412 259.791 376.202 254.456 371.548 252.528C366.894 250.6 361.558 252.81 359.63 257.464C357.702 262.118 359.912 267.454 364.567 269.382C369.221 271.309 374.556 269.099 376.484 264.445Z" fill="#FF5B3B"/>
    <path d="M441.528 361.084C445.369 363.029 450.728 360.388 451.526 356.157" stroke="white" stroke-width="1.5" stroke-miterlimit="10" stroke-linecap="round" stroke-linejoin="round"/>
    <path d="M179.645 275.854C179.645 275.854 198.346 265.712 211.002 249.056" stroke="#060305" stroke-width="1.5" stroke-miterlimit="10" stroke-linecap="round" stroke-linejoin="round"/>
    <path d="M361.981 319.847C372.576 319.809 383.174 320.663 393.626 322.396" stroke="#060305" stroke-width="1.5" stroke-miterlimit="10" stroke-linecap="round" stroke-linejoin="round"/>
    <path d="M132.822 349.301C133.305 352.079 135.776 354.388 138.58 354.68C141.384 354.973 144.279 353.225 145.325 350.606" stroke="white" stroke-width="1.5" stroke-miterlimit="10" stroke-linecap="round" stroke-linejoin="round"/>
    <path d="M284.496 269.121C282.847 266.522 281.198 263.923 279.549 261.325" stroke="#060305" stroke-width="1.5" stroke-miterlimit="10" stroke-linecap="round" stroke-linejoin="round"/>
    <path d="M224.037 115.826C224.667 100.865 235.179 86.8031 249.35 81.9651" stroke="white" stroke-width="1.5" stroke-miterlimit="10" stroke-linecap="round" stroke-linejoin="round"/>
</svg>
